<svg width="52" height="52" viewBox="0 0 52 52" fill="none" xmlns="http://www.w3.org/2000/svg">
<mask id="mask0" mask-type="alpha" maskUnits="userSpaceOnUse" x="0" y="0" width="52" height="52">
<circle cx="26" cy="26" r="26" fill="#FF8370"/>
</mask>
<g mask="url(#mask0)">
<rect x="-18" width="88" height="52" rx="8" fill="#85CEFF"/>
<path fill-rule="evenodd" clip-rule="evenodd" d="M31.744 21.0596C35.9355 21.0596 39.3334 24.4575 39.3334 28.649C39.3334 29.5793 39.166 30.4706 38.8597 31.2943L38.8591 34.8671C38.8591 35.335 38.505 35.7203 38.0502 35.7696L37.9513 35.7749L34.3605 35.7753C33.5449 36.0749 32.6635 36.2384 31.744 36.2384C29.5348 36.2384 27.546 35.2944 26.159 33.7878C29.4457 32.3612 31.744 29.087 31.744 25.2759C31.744 23.7829 31.3913 22.3722 30.7646 21.1227C31.085 21.0809 31.412 21.0596 31.744 21.0596ZM21.6046 16C26.5409 16 30.5425 20.0016 30.5425 24.9379C30.5425 29.8741 26.5409 33.8758 21.6046 33.8758C20.6419 33.8758 19.7147 33.7236 18.8458 33.4419L18.5228 33.3302L14.3426 33.3299L14.2284 33.3241C13.7026 33.2707 13.2845 32.8527 13.2311 32.3269L13.2254 32.2127L13.2248 28.0535C12.8639 27.0834 12.6667 26.0337 12.6667 24.9379C12.6667 20.0016 16.6684 16 21.6046 16ZM17.7263 24.4327C17.2606 24.4327 16.8831 24.8102 16.8831 25.2759C16.8831 25.7417 17.2606 26.1192 17.7263 26.1192C18.1921 26.1192 18.5696 25.7417 18.5696 25.2759C18.5696 24.8102 18.1921 24.4327 17.7263 24.4327ZM21.9427 24.4327C21.477 24.4327 21.0994 24.8102 21.0994 25.2759C21.0994 25.7417 21.477 26.1192 21.9427 26.1192C22.4084 26.1192 22.7859 25.7417 22.7859 25.2759C22.7859 24.8102 22.4084 24.4327 21.9427 24.4327ZM26.159 24.4327C25.6933 24.4327 25.3157 24.8102 25.3157 25.2759C25.3157 25.7417 25.6933 26.1192 26.159 26.1192C26.6247 26.1192 27.0023 25.7417 27.0023 25.2759C27.0023 24.8102 26.6247 24.4327 26.159 24.4327Z" fill="white"/>
</g>
</svg>
