<svg width="52" height="52" viewBox="0 0 52 52" fill="none" xmlns="http://www.w3.org/2000/svg">
<mask id="mask0" mask-type="alpha" maskUnits="userSpaceOnUse" x="0" y="0" width="52" height="52">
<circle cx="26" cy="26" r="26" fill="#FF8370"/>
</mask>
<g mask="url(#mask0)">
<rect x="-18" width="88" height="52" rx="8" fill="#FF9C8C"/>
<path fill-rule="evenodd" clip-rule="evenodd" d="M18.25 16C17.0074 16 16 17.0074 16 18.25V33.75C16 34.9926 17.0074 36 18.25 36H33.75C34.9926 36 36 34.9926 36 33.75V18.25C36 17.0074 34.9926 16 33.75 16H18.25ZM25.4592 21.1944L21.3041 24.6329C21.1115 24.7923 21 25.0285 21 25.2776V30.1608C21 30.6243 21.3784 31 21.8451 31H30.1549C30.6216 31 31 30.6243 31 30.1608V25.2769C30.9996 25.0276 30.8881 24.792 30.6958 24.6328L26.5408 21.1944C26.2275 20.9352 25.7725 20.9352 25.4592 21.1944ZM22.25 25.349L26 22.25L29.75 25.349V29.75H22.25V25.349Z" fill="white"/>
</g>
</svg>
