<svg width="52" height="52" viewBox="0 0 52 52" fill="none" xmlns="http://www.w3.org/2000/svg">
<mask id="mask0" mask-type="alpha" maskUnits="userSpaceOnUse" x="0" y="0" width="52" height="52">
<circle cx="26" cy="26" r="26" fill="#FF8370"/>
</mask>
<g mask="url(#mask0)">
<rect x="-18" width="88" height="52" rx="8" fill="#83C6CF"/>
<path fill-rule="evenodd" clip-rule="evenodd" d="M25.3036 14.3991C25.7709 14.3113 26.2291 14.3113 26.6964 14.3991C28.5691 14.7503 33.6582 15.7366 34.9873 16.3478C35.6127 16.6352 36 17.2326 36 17.8919V27.704C36 30.0589 34.7309 32.2503 32.6327 33.5139L26.9764 36.9206C26.38 37.2803 25.62 37.2803 25.0236 36.9206L19.3691 33.5139C17.2691 32.2503 16 30.0589 16 27.704V17.8919C16 17.2326 16.3873 16.6352 17.0145 16.3478C18.3418 15.7366 23.4309 14.7503 25.3036 14.3991ZM31.3711 20.9291C30.9508 20.7159 30.4159 20.8461 30.1762 21.22L25.2484 28.9047L21.9285 25.4273L21.8375 25.345C21.5164 25.0946 21.029 25.0845 20.6937 25.3378C20.325 25.6163 20.2799 26.1081 20.5931 26.4361L24.723 30.7619L24.8123 30.8429C25.2192 31.1632 25.8722 31.0796 26.1517 30.6435L31.6981 21.992L31.7501 21.8966C31.9115 21.5406 31.7564 21.1245 31.3711 20.9291Z" fill="white"/>
</g>
</svg>
