<svg width="52" height="52" viewBox="0 0 52 52" fill="none" xmlns="http://www.w3.org/2000/svg">
<mask id="mask0" mask-type="alpha" maskUnits="userSpaceOnUse" x="0" y="0" width="52" height="52">
<circle cx="26" cy="26" r="26" fill="#FF8370"/>
</mask>
<g mask="url(#mask0)">
<rect x="-18" width="88" height="52" rx="8" fill="#CCA7D8"/>
<path fill-rule="evenodd" clip-rule="evenodd" d="M14.6667 17.6667C13.5622 17.6667 12.6667 18.5622 12.6667 19.6667V31.963C12.6667 33.0676 13.5622 33.963 14.6667 33.963H37.3334C38.438 33.963 39.3334 33.0676 39.3334 31.963V19.6667C39.3334 18.5622 38.438 17.6667 37.3334 17.6667H14.6667ZM30.6723 23.6245L33.1506 27.3745V23.5898C33.1506 23.3438 33.2034 23.1594 33.309 23.0364C33.4146 22.9134 33.5571 22.8519 33.7365 22.8519C33.9217 22.8519 34.0678 22.9134 34.1749 23.0364C34.2819 23.1594 34.3354 23.3438 34.3354 23.5898V28.5941C34.3354 29.1526 34.104 29.4318 33.641 29.4318C33.5253 29.4318 33.4211 29.4152 33.3285 29.3819C33.2359 29.3486 33.1491 29.2958 33.0681 29.2235C32.9871 29.1511 32.9118 29.0665 32.8424 28.9696C32.7729 28.8726 32.7035 28.7735 32.6341 28.6723L30.2165 24.9657V28.694C30.2165 28.937 30.1601 29.1207 30.0473 29.2452C29.9344 29.3696 29.7897 29.4318 29.6132 29.4318C29.4309 29.4318 29.2848 29.3689 29.1749 29.243C29.0649 29.1171 29.0099 28.9341 29.0099 28.694V23.7851C29.0099 23.5768 29.0331 23.4133 29.0794 23.2946C29.1343 23.1644 29.2255 23.0581 29.3528 22.9756C29.4801 22.8932 29.6176 22.8519 29.7651 22.8519C29.8809 22.8519 29.98 22.8707 30.0624 22.9084C30.1449 22.946 30.2172 22.9966 30.2795 23.0603C30.3417 23.1239 30.4053 23.2064 30.4704 23.3077C30.5355 23.4089 30.6028 23.5146 30.6723 23.6245ZM18.4828 23.6983L19.9237 27.9648L21.3691 23.6679C21.4443 23.4422 21.5007 23.2852 21.5383 23.197C21.5759 23.1087 21.6382 23.0292 21.725 22.9583C21.8118 22.8874 21.9304 22.8519 22.0809 22.8519C22.1908 22.8519 22.2928 22.8794 22.3869 22.9344C22.4809 22.9894 22.5547 23.0624 22.6082 23.1536C22.6617 23.2447 22.6885 23.3366 22.6885 23.4292C22.6885 23.4929 22.6798 23.5616 22.6625 23.6354C22.6451 23.7091 22.6234 23.7815 22.5974 23.8524C22.5713 23.9233 22.5453 23.9963 22.5192 24.0716L20.9784 28.2295C20.9235 28.3887 20.8685 28.5399 20.8135 28.6831C20.7585 28.8263 20.6949 28.9522 20.6225 29.0607C20.5502 29.1692 20.454 29.2582 20.3339 29.3276C20.2138 29.3971 20.067 29.4318 19.8934 29.4318C19.7198 29.4318 19.5729 29.3978 19.4528 29.3298C19.3327 29.2618 19.2358 29.1721 19.162 29.0607C19.0882 28.9493 19.0239 28.8227 18.9689 28.6809C18.9139 28.5392 18.8589 28.3887 18.804 28.2295L17.2892 24.1063C17.2632 24.031 17.2364 23.9573 17.2089 23.8849C17.1814 23.8126 17.1583 23.7345 17.1395 23.6506C17.1206 23.5666 17.1112 23.4957 17.1112 23.4379C17.1112 23.2903 17.1706 23.1558 17.2892 23.0342C17.4078 22.9127 17.5568 22.8519 17.7362 22.8519C17.9562 22.8519 18.1117 22.9192 18.2028 23.0538C18.294 23.1883 18.3873 23.4032 18.4828 23.6983ZM25.8296 26.845H24.6491V28.6462C24.6491 28.9037 24.5883 29.099 24.4668 29.2321C24.3453 29.3652 24.1919 29.4318 24.0067 29.4318C23.8129 29.4318 23.6566 29.366 23.538 29.2343C23.4193 29.1027 23.36 28.9095 23.36 28.6549V23.7504C23.36 23.4668 23.4251 23.2643 23.5553 23.1427C23.6855 23.0212 23.8924 22.9604 24.176 22.9604H25.8296C26.3187 22.9604 26.6948 22.9981 26.9581 23.0733C27.2185 23.1456 27.4435 23.2657 27.633 23.4335C27.8226 23.6014 27.9665 23.8068 28.0649 24.0498C28.1633 24.2929 28.2125 24.5663 28.2125 24.8702C28.2125 25.5183 28.0128 26.0095 27.6135 26.3437C27.2142 26.6779 26.6196 26.845 25.8296 26.845ZM24.6491 23.9283H25.5171C26.093 23.9283 26.4734 24.0224 26.6586 24.2104C26.8236 24.3869 26.906 24.6155 26.906 24.8962C26.906 25.1306 26.8525 25.3201 26.7454 25.4648C26.6384 25.6095 26.4829 25.7136 26.2789 25.7773C26.0749 25.8409 25.821 25.8728 25.5171 25.8728H24.6491V23.9283Z" fill="white"/>
</g>
</svg>
